<svg width="18" height="19" viewBox="0 0 18 19" fill="none" xmlns="http://www.w3.org/2000/svg">
<path d="M12.5 11.5204H11.71L11.43 11.2504C12.41 10.1104 13 8.63039 13 7.02039C13 3.43039 10.09 0.520386 6.5 0.520386C2.91 0.520386 0 3.43039 0 7.02039C0 10.6104 2.91 13.5204 6.5 13.5204C8.11 13.5204 9.59 12.9304 10.73 11.9504L11 12.2304V13.0204L16 18.0104L17.49 16.5204L12.5 11.5204ZM6.5 11.5204C4.01 11.5204 2 9.51039 2 7.02039C2 4.53039 4.01 2.52039 6.5 2.52039C8.99 2.52039 11 4.53039 11 7.02039C11 9.51039 8.99 11.5204 6.5 11.5204Z" fill="#727272"/>
</svg>
