<svg width="190" height="64" viewBox="0 0 190 64" fill="none" xmlns="http://www.w3.org/2000/svg">
<rect width="190" height="64" fill="black"/>
<path d="M30.0107 32.9749C28.0494 23.1482 36.0337 19.615 39.5484 18.9037C50.1492 16.7534 58.1548 21.8506 58.1548 30.6938C58.1548 39.537 55.2148 44.4506 45.4221 45.4312C35.629 46.4144 31.9696 42.8017 30.0107 32.9749Z" fill="#DD0E23"/>
<path d="M41.9855 29.0461C41.8592 28.4131 42.3733 28.1856 42.5996 28.1397C43.2822 28.0011 43.798 28.3295 43.798 28.8989C43.798 29.4684 43.6086 29.7849 42.978 29.848C42.3475 29.9116 42.1118 29.6787 41.9855 29.0461Z" fill="white"/>
<path d="M33.616 32.9991C33.4996 31.7134 33.6533 30.1723 33.6939 29.7656C33.8103 28.5968 34.2859 28.0298 35.1596 28.0298C36.3243 28.0298 36.4215 30.4281 37.6157 30.4281C38.8096 30.4281 38.5669 27.9716 40.0813 27.9716C41.2174 27.9716 41.1879 28.9867 41.3047 30.0387C41.4011 30.9099 41.4211 32.649 41.3047 33.3258C41.1711 34.1032 40.9259 34.6775 40.14 34.6775C39.3536 34.6775 39.3635 34.0216 39.3635 33.35C39.3635 32.6785 39.3881 31.3924 39.3881 31.3924C39.3881 31.3924 38.4509 32.6465 37.4608 32.6465C36.4707 32.6465 35.5388 31.1854 35.5388 31.1854V33.3767C35.5388 34.3118 35.3059 34.6624 34.6069 34.6624C33.9071 34.6624 33.7292 34.2499 33.616 32.9991Z" fill="white"/>
<path d="M43.8421 33.6998C43.8421 34.4332 43.4395 34.662 42.8766 34.662C42.3137 34.662 41.9111 34.4328 41.9111 33.6998L41.8574 31.6655C41.8574 30.9321 42.3137 30.3376 42.8766 30.3376C43.4395 30.3376 43.8958 30.9321 43.8958 31.6655L43.8421 33.6998Z" fill="white"/>
<path d="M46.5999 37.4019C46.0915 37.3642 45.7844 37.0558 45.7844 36.5836C45.7844 36.1113 46.0686 35.7456 46.5101 35.7652L46.9684 35.7862C47.3682 35.8042 47.7695 35.9567 47.7695 36.5836C47.7691 37.1419 47.4043 37.4617 46.5999 37.4019ZM46.1194 31.6745C46.3912 31.5187 46.8315 31.5827 46.8315 31.5827C47.1948 31.5991 47.5592 31.9229 47.5592 32.3071C47.5592 32.6908 47.2763 33.0151 46.9131 33.0315L46.4966 33.0504C46.0956 33.0688 45.7188 32.8778 45.6922 32.376C45.6729 32.0054 45.8476 31.8303 46.1194 31.6745ZM47.749 34.6021L46.5482 34.5562C46.5454 34.546 46.5429 34.5357 46.5429 34.5255C46.5429 34.457 46.6142 34.3832 46.7266 34.3488L47.1624 34.3291H47.3346V34.3213L47.592 34.3098C48.628 34.2627 49.4336 33.339 49.4336 32.2448C49.4336 31.9853 49.3746 31.736 49.2721 31.5052C49.6226 31.3838 49.7391 31.1223 49.7391 30.7197C49.7391 30.2072 49.2319 29.9116 48.5596 30.0362C48.4247 30.0612 48.1857 30.1465 48.0459 30.3363C47.8249 30.2453 47.592 30.1904 47.3596 30.1797C47.3596 30.1797 46.5851 30.0772 45.8082 30.233C45.0317 30.3888 44.154 31.0337 44.2929 32.3952C44.3795 33.2451 44.7443 33.8277 45.2896 34.1282C45.2183 34.2524 45.1773 34.3861 45.1773 34.5255C45.1773 34.6739 45.1945 34.8075 45.2252 34.9297C44.7583 35.293 44.4893 35.8751 44.4344 36.4884C44.3421 37.5232 44.7206 38.2198 46.0021 38.4535C47.0906 38.6519 48.0213 38.4535 48.0213 38.4535C49.2856 38.1427 49.8075 37.4265 49.8075 36.5836C49.8084 35.2659 48.8683 34.6452 47.749 34.6021Z" fill="white"/>
<path d="M52.3073 33.2377C51.6768 33.3009 51.441 33.0684 51.3147 32.4354C51.1885 31.8024 51.7026 31.5749 51.9289 31.529C52.6115 31.3904 53.1273 31.7188 53.1273 32.2882C53.1273 32.8577 52.9383 33.1746 52.3073 33.2377ZM51.5394 30.0338C50.9322 30.1568 49.5527 30.7672 49.8917 32.4649C50.2304 34.1627 50.8625 34.787 52.5545 34.6169C54.2465 34.4476 54.7544 33.5985 54.7544 32.0705C54.754 30.543 53.3712 29.6619 51.5394 30.0338Z" fill="white"/>
<path d="M75.7891 28.1113C75.7617 28.7051 75.6016 29.2305 75.3086 29.6875C75.0156 30.1406 74.6035 30.4922 74.0723 30.7422C73.5449 30.9922 72.9414 31.1172 72.2617 31.1172C71.1406 31.1172 70.2578 30.752 69.6133 30.0215C68.9688 29.291 68.6465 28.2598 68.6465 26.9277V26.5059C68.6465 25.6699 68.791 24.9395 69.0801 24.3145C69.373 23.6855 69.793 23.2012 70.3398 22.8613C70.8867 22.5176 71.5195 22.3457 72.2383 22.3457C73.2734 22.3457 74.1055 22.6191 74.7344 23.166C75.3633 23.709 75.7207 24.459 75.8066 25.416H73.7559C73.7402 24.8965 73.6094 24.5234 73.3633 24.2969C73.1172 24.0703 72.7422 23.957 72.2383 23.957C71.7266 23.957 71.3516 24.1484 71.1133 24.5312C70.875 24.9141 70.75 25.5254 70.7383 26.3652V26.9688C70.7383 27.8789 70.8516 28.5293 71.0781 28.9199C71.3086 29.3105 71.7031 29.5059 72.2617 29.5059C72.7344 29.5059 73.0957 29.3945 73.3457 29.1719C73.5957 28.9492 73.7285 28.5957 73.7441 28.1113H75.7891ZM88.9863 26.9102C88.9863 27.7422 88.832 28.4785 88.5234 29.1191C88.2148 29.7598 87.7754 30.2539 87.2051 30.6016C86.6387 30.9453 85.9922 31.1172 85.2656 31.1172C84.5391 31.1172 83.8945 30.9512 83.332 30.6191C82.7695 30.2832 82.3301 29.8047 82.0137 29.1836C81.7012 28.5625 81.5371 27.8496 81.5215 27.0449V26.5645C81.5215 25.7285 81.6738 24.9922 81.9785 24.3555C82.2871 23.7148 82.7266 23.2207 83.2969 22.873C83.8711 22.5254 84.5234 22.3516 85.2539 22.3516C85.9766 22.3516 86.6211 22.5234 87.1875 22.8672C87.7539 23.2109 88.1934 23.7012 88.5059 24.3379C88.8223 24.9707 88.9824 25.6973 88.9863 26.5176V26.9102ZM86.8945 26.5527C86.8945 25.7051 86.752 25.0625 86.4668 24.625C86.1855 24.1836 85.7812 23.9629 85.2539 23.9629C84.2227 23.9629 83.6777 24.7363 83.6191 26.2832L83.6133 26.9102C83.6133 27.7461 83.752 28.3887 84.0293 28.8379C84.3066 29.2871 84.7188 29.5117 85.2656 29.5117C85.7852 29.5117 86.1855 29.291 86.4668 28.8496C86.748 28.4082 86.8906 27.7734 86.8945 26.9453V26.5527ZM102.172 31H100.127L97.1035 25.6914V31H95.0469V22.4688H97.1035L100.121 27.7773V22.4688H102.172V31ZM114.994 24.0566H112.434V31H110.377V24.0566H107.863V22.4688H114.994V24.0566ZM126.158 27.3848H122.924V29.418H126.744V31H120.867V22.4688H126.756V24.0566H122.924V25.8555H126.158V27.3848ZM139.707 31H137.662L134.639 25.6914V31H132.582V22.4688H134.639L137.656 27.7773V22.4688H139.707V31ZM152.529 24.0566H149.969V31H147.912V24.0566H145.398V22.4688H152.529V24.0566ZM71.375 34.4688L73.2793 40.4043L75.1777 34.4688H77.8848V43H75.8223V41.0078L76.0215 36.9297L73.959 43H72.5996L70.5312 36.9238L70.7305 41.0078V43H68.6738V34.4688H71.375ZM86.1484 41.4062H83.3301L82.8379 43H80.6406L83.7695 34.4688H85.7031L88.8555 43H86.6465L86.1484 41.4062ZM83.8223 39.8184H85.6562L84.7363 36.8594L83.8223 39.8184ZM94.6523 39.9883H93.5391V43H91.4824V34.4688H94.8398C95.8516 34.4688 96.6426 34.6934 97.2129 35.1426C97.7832 35.5918 98.0684 36.2266 98.0684 37.0469C98.0684 37.6406 97.9473 38.1328 97.7051 38.5234C97.4668 38.9141 97.0918 39.2305 96.5801 39.4727L98.3613 42.9121V43H96.1582L94.6523 39.9883ZM93.5391 38.4004H94.8398C95.2305 38.4004 95.5234 38.2988 95.7188 38.0957C95.918 37.8887 96.0176 37.6016 96.0176 37.2344C96.0176 36.8672 95.918 36.5801 95.7188 36.373C95.5195 36.1621 95.2266 36.0566 94.8398 36.0566H93.5391V38.4004ZM104.211 39.8242L103.367 40.75V43H101.311V34.4688H103.367V38.2305L104.082 37.1465L105.922 34.4688H108.465L105.582 38.2422L108.465 43H106.027L104.211 39.8242ZM116.277 39.3848H113.043V41.418H116.863V43H110.986V34.4688H116.875V36.0566H113.043V37.8555H116.277V39.3848ZM126.516 36.0566H123.955V43H121.898V36.0566H119.385V34.4688H126.516V36.0566ZM131.58 43H129.529V34.4688H131.58V43ZM142.135 43H140.09L137.066 37.6914V43H135.01V34.4688H137.066L140.084 39.7773V34.4688H142.135V43ZM152.42 41.9453C152.104 42.2969 151.641 42.5801 151.031 42.7949C150.422 43.0098 149.754 43.1172 149.027 43.1172C147.91 43.1172 147.018 42.7754 146.35 42.0918C145.682 41.4082 145.324 40.457 145.277 39.2383L145.271 38.5C145.271 37.6602 145.42 36.9277 145.717 36.3027C146.014 35.6738 146.438 35.1914 146.988 34.8555C147.543 34.5156 148.184 34.3457 148.91 34.3457C149.973 34.3457 150.797 34.5898 151.383 35.0781C151.973 35.5625 152.316 36.2871 152.414 37.252H150.434C150.363 36.7754 150.211 36.4355 149.977 36.2324C149.742 36.0293 149.41 35.9277 148.98 35.9277C148.465 35.9277 148.066 36.1465 147.785 36.584C147.504 37.0215 147.361 37.6465 147.357 38.459V38.9746C147.357 39.8262 147.502 40.4668 147.791 40.8965C148.084 41.3223 148.543 41.5352 149.168 41.5352C149.703 41.5352 150.102 41.416 150.363 41.1777V39.8535H148.934V38.4414H152.42V41.9453Z" fill="white"/>
</svg>
