<svg width="176" height="65" viewBox="0 0 176 65" fill="none" xmlns="http://www.w3.org/2000/svg">
<g filter="url(#filter0_i_3_2499)">
<rect width="176" height="64" transform="translate(0 0.260254)" fill="#E31E30"/>
<path d="M36.8 23.6717L30.8 28.3003C30.5516 28.4919 30.35 28.7403 30.2111 29.026C30.0723 29.3116 30 29.6266 30 29.946V39.2031C30 39.7487 30.2107 40.2719 30.5858 40.6577C30.9609 41.0435 31.4696 41.2603 32 41.2603H44C44.5304 41.2603 45.0391 41.0435 45.4142 40.6577C45.7893 40.2719 46 39.7487 46 39.2031V29.946C46 29.6266 45.9277 29.3116 45.7889 29.026C45.65 28.7403 45.4484 28.4919 45.2 28.3003L39.2 23.6717C38.8538 23.4046 38.4327 23.2603 38 23.2603C37.5673 23.2603 37.1462 23.4046 36.8 23.6717ZM36 40.2317H34C33.7348 40.2317 33.4804 40.1233 33.2929 39.9304C33.1054 39.7375 33 39.4759 33 39.2031V37.146C33 36.8732 33.1054 36.6116 33.2929 36.4187C33.4804 36.2258 33.7348 36.1174 34 36.1174H36C36.2652 36.1174 36.5196 36.2258 36.7071 36.4187C36.8946 36.6116 37 36.8732 37 37.146V39.2031C37 39.4759 36.8946 39.7375 36.7071 39.9304C36.5196 40.1233 36.2652 40.2317 36 40.2317ZM36 34.0603H34C33.7348 34.0603 33.4804 33.9519 33.2929 33.759C33.1054 33.5661 33 33.3045 33 33.0317V30.9745C33 30.7017 33.1054 30.4401 33.2929 30.2472C33.4804 30.0543 33.7348 29.946 34 29.946H36C36.2652 29.946 36.5196 30.0543 36.7071 30.2472C36.8946 30.4401 37 30.7017 37 30.9745V33.0317C37 33.3045 36.8946 33.5661 36.7071 33.759C36.5196 33.9519 36.2652 34.0603 36 34.0603ZM42 40.2317H40C39.7348 40.2317 39.4804 40.1233 39.2929 39.9304C39.1054 39.7375 39 39.4759 39 39.2031V37.146C39 36.8732 39.1054 36.6116 39.2929 36.4187C39.4804 36.2258 39.7348 36.1174 40 36.1174H42C42.2652 36.1174 42.5196 36.2258 42.7071 36.4187C42.8946 36.6116 43 36.8732 43 37.146V39.2031C43 39.4759 42.8946 39.7375 42.7071 39.9304C42.5196 40.1233 42.2652 40.2317 42 40.2317Z" fill="white"/>
<path d="M63.8984 37.7603H61.5547V26.3853H63.8984V37.7603ZM75.5781 37.7603H73.2344L68.6719 30.2759V37.7603H66.3281V26.3853H68.6719L73.2422 33.8853V26.3853H75.5781V37.7603ZM82.0781 34.9399L84.6562 26.3853H87.2656L83.3047 37.7603H80.8594L76.9141 26.3853H79.5156L82.0781 34.9399ZM95.4375 32.8306H90.9375V35.8774H96.2188V37.7603H88.5938V26.3853H96.2031V28.2837H90.9375V30.9946H95.4375V32.8306ZM107.094 37.7603H104.75L100.188 30.2759V37.7603H97.8438V26.3853H100.188L104.758 33.8853V26.3853H107.094V37.7603ZM117.719 28.2837H114.234V37.7603H111.891V28.2837H108.453V26.3853H117.719V28.2837ZM128.438 32.3306C128.438 33.4504 128.24 34.4321 127.844 35.2759C127.448 36.1196 126.88 36.7707 126.141 37.229C125.406 37.6873 124.562 37.9165 123.609 37.9165C122.667 37.9165 121.826 37.6899 121.086 37.2368C120.346 36.7837 119.773 36.1379 119.367 35.2993C118.961 34.4556 118.755 33.4868 118.75 32.3931V31.8306C118.75 30.7108 118.951 29.7264 119.352 28.8774C119.758 28.0233 120.328 27.3696 121.062 26.9165C121.802 26.4582 122.646 26.229 123.594 26.229C124.542 26.229 125.383 26.4582 126.117 26.9165C126.857 27.3696 127.427 28.0233 127.828 28.8774C128.234 29.7264 128.438 30.7082 128.438 31.8228V32.3306ZM126.062 31.8149C126.062 30.6222 125.849 29.716 125.422 29.0962C124.995 28.4764 124.385 28.1665 123.594 28.1665C122.807 28.1665 122.201 28.4738 121.773 29.0884C121.346 29.6978 121.13 30.5936 121.125 31.7759V32.3306C121.125 33.492 121.339 34.3931 121.766 35.0337C122.193 35.6743 122.807 35.9946 123.609 35.9946C124.396 35.9946 125 35.6873 125.422 35.0728C125.844 34.453 126.057 33.5519 126.062 32.3696V31.8149ZM134.602 33.5962H132.734V37.7603H130.391V26.3853H134.617C135.961 26.3853 136.997 26.6847 137.727 27.2837C138.456 27.8826 138.82 28.729 138.82 29.8228C138.82 30.5988 138.651 31.2472 138.312 31.7681C137.979 32.2837 137.471 32.6951 136.789 33.0024L139.25 37.6509V37.7603H136.734L134.602 33.5962ZM132.734 31.6978H134.625C135.214 31.6978 135.669 31.5493 135.992 31.2524C136.315 30.9504 136.477 30.5363 136.477 30.0103C136.477 29.4738 136.323 29.0519 136.016 28.7446C135.714 28.4373 135.247 28.2837 134.617 28.2837H132.734V31.6978ZM144.406 31.5103L146.773 26.3853H149.336L145.602 33.6353V37.7603H143.219V33.6353L139.484 26.3853H142.055L144.406 31.5103Z" fill="white"/>
</g>
<defs>
<filter id="filter0_i_3_2499" x="0" y="0.260254" width="176" height="64" filterUnits="userSpaceOnUse" color-interpolation-filters="sRGB">
<feFlood flood-opacity="0" result="BackgroundImageFix"/>
<feBlend mode="normal" in="SourceGraphic" in2="BackgroundImageFix" result="shape"/>
<feColorMatrix in="SourceAlpha" type="matrix" values="0 0 0 0 0 0 0 0 0 0 0 0 0 0 0 0 0 0 127 0" result="hardAlpha"/>
<feOffset dy="-4"/>
<feComposite in2="hardAlpha" operator="arithmetic" k2="-1" k3="1"/>
<feColorMatrix type="matrix" values="0 0 0 0 1 0 0 0 0 1 0 0 0 0 1 0 0 0 1 0"/>
<feBlend mode="normal" in2="shape" result="effect1_innerShadow_3_2499"/>
</filter>
</defs>
</svg>
